<?xml version="1.0" encoding="UTF-8"?>
<svg xmlns="http://www.w3.org/2000/svg" xmlns:xlink="http://www.w3.org/1999/xlink" width="1142pt" height="194pt" viewBox="0 0 1142 194" version="1.1">
<g id="surface1">
<path style=" stroke:none;fill-rule:nonzero;fill:rgb(0%,0%,0%);fill-opacity:1;" d="M 507.140625 159.894531 L 530.355469 159.894531 L 530.355469 185.28125 L 448.386719 185.28125 L 448.386719 159.894531 L 473.773438 159.894531 L 461.683594 128.460938 L 395.671875 128.460938 L 383.582031 159.894531 L 411.390625 159.894531 L 411.390625 185.28125 L 330.628906 185.28125 L 330.628906 159.894531 L 353.359375 159.894531 L 402.445312 44.554688 L 381.648438 44.554688 L 381.648438 19.410156 L 478.609375 19.410156 L 478.609375 44.554688 L 457.574219 44.554688 Z M 404.378906 105.730469 L 452.980469 105.730469 L 429.285156 44.554688 L 428.074219 44.554688 Z M 695.984375 44.796875 L 644.238281 100.167969 L 698.886719 159.894531 L 719.4375 159.894531 L 719.4375 185.28125 L 635.535156 185.28125 L 635.535156 162.554688 L 658.746094 162.554688 L 621.996094 119.511719 L 584.273438 162.554688 L 607.96875 162.554688 L 607.96875 185.28125 L 529.628906 185.28125 L 529.628906 159.894531 L 552.597656 159.894531 L 604.34375 103.796875 L 549.214844 44.796875 L 529.628906 44.796875 L 529.628906 19.410156 L 613.289062 19.410156 L 613.289062 42.136719 L 588.867188 42.136719 L 626.589844 84.453125 L 665.035156 42.136719 L 640.371094 42.136719 L 640.371094 19.410156 L 719.4375 19.410156 L 719.4375 44.796875 Z M 819.542969 188.425781 C 802.777344 188.425781 787.65625 184.667969 774.179688 177.15625 C 760.738281 169.679688 750.179688 159.410156 742.507812 146.351562 C 734.867188 133.296875 731.042969 118.625 731.042969 102.347656 C 731.042969 86.066406 734.867188 71.347656 742.507812 58.195312 C 750.179688 45.074219 760.785156 34.753906 774.328125 27.242188 C 787.867188 19.765625 802.9375 16.023438 819.542969 16.023438 C 835.984375 16.023438 850.925781 19.765625 864.371094 27.242188 C 877.847656 34.753906 888.40625 45.074219 896.046875 58.195312 C 903.71875 71.347656 907.554688 86.066406 907.554688 102.347656 C 907.554688 118.464844 903.71875 133.085938 896.046875 146.207031 C 888.40625 159.363281 877.847656 169.679688 864.371094 177.15625 C 850.925781 184.667969 835.984375 188.425781 819.542969 188.425781 Z M 819.542969 162.3125 C 830.179688 162.3125 839.644531 159.683594 847.929688 154.429688 C 856.246094 149.207031 862.664062 142 867.175781 132.8125 C 871.691406 123.625 873.945312 113.46875 873.945312 102.347656 C 873.945312 91.0625 871.691406 80.824219 867.175781 71.636719 C 862.664062 62.449219 856.296875 55.226562 848.074219 49.972656 C 839.851562 44.75 830.34375 42.136719 819.542969 42.136719 C 808.417969 42.136719 798.699219 44.796875 790.382812 50.117188 C 782.097656 55.4375 775.695312 62.644531 771.183594 71.734375 C 766.667969 80.859375 764.414062 91.0625 764.414062 102.347656 C 764.414062 113.789062 766.667969 124.027344 771.183594 133.054688 C 775.695312 142.082031 782.097656 149.207031 790.382812 154.429688 C 798.699219 159.683594 808.417969 162.3125 819.542969 162.3125 Z M 1140.597656 19.410156 L 1140.597656 44.796875 L 1112.550781 44.796875 L 1112.550781 186.734375 L 1095.867188 186.972656 L 985.367188 63.175781 L 985.367188 159.894531 L 1013.898438 159.894531 L 1013.898438 185.28125 L 926.125 185.28125 L 926.125 159.894531 L 955.140625 159.894531 L 955.140625 44.796875 L 926.125 44.796875 L 926.125 19.410156 L 985.367188 19.410156 L 1083.050781 131.601562 L 1083.050781 44.796875 L 1054.035156 44.796875 L 1054.035156 19.410156 Z M 1140.597656 19.410156 "/>
<path style=" stroke:none;fill-rule:nonzero;fill:rgb(0%,0%,0%);fill-opacity:1;" d="M 193.304688 24.539062 C 190.707031 21.46875 186.929688 19.582031 182.679688 19.34375 C 174.175781 18.636719 166.855469 25.25 166.148438 33.511719 C 165.910156 35.402344 166.148438 37.054688 166.621094 38.707031 L 118.449219 66.574219 C 116.558594 64.210938 114.433594 62.324219 112.070312 60.667969 C 108.292969 58.070312 104.277344 56.65625 100.265625 56.183594 L 100.265625 30.679688 C 103.804688 29.734375 106.875 27.609375 109 24.539062 C 113.722656 17.457031 111.835938 8.011719 104.988281 3.050781 C 97.902344 -1.671875 88.457031 0.21875 83.5 7.066406 C 78.777344 14.148438 80.664062 23.59375 87.511719 28.554688 C 88.929688 29.5 90.582031 30.207031 92.234375 30.679688 L 92.234375 56.183594 C 85.152344 57.128906 78.777344 60.667969 74.050781 66.574219 L 31.074219 41.777344 C 31.78125 38.707031 31.3125 35.167969 29.894531 32.097656 C 28.003906 28.316406 24.933594 25.71875 21.15625 24.304688 C 17.378906 22.886719 13.128906 23.121094 9.347656 25.011719 C 5.570312 26.902344 2.972656 29.972656 1.558594 33.75 C 0.140625 37.527344 0.375 41.777344 2.265625 45.554688 C 4.15625 49.335938 7.222656 51.933594 11.003906 53.347656 C 12.65625 53.820312 14.308594 54.292969 15.960938 54.292969 C 18.324219 54.292969 20.449219 53.820312 22.574219 52.640625 C 24.460938 51.695312 26.117188 50.277344 27.53125 48.863281 L 70.273438 73.421875 C 68.148438 78.378906 67.675781 83.8125 68.859375 89.242188 C 69.09375 91.132812 69.800781 92.785156 70.273438 94.4375 L 45.714844 108.605469 C 43.117188 106.007812 39.574219 104.355469 35.796875 104.121094 C 27.296875 103.410156 19.976562 110.023438 19.265625 118.289062 C 19.03125 122.300781 20.210938 126.316406 23.046875 129.386719 C 25.644531 132.457031 29.421875 134.347656 33.671875 134.582031 C 34.144531 134.582031 34.378906 134.582031 34.851562 134.582031 C 38.632812 134.582031 42.171875 133.164062 45.007812 130.804688 C 48.078125 128.207031 49.964844 124.429688 50.203125 120.175781 C 50.4375 118.523438 50.203125 116.636719 49.730469 114.980469 L 74.289062 100.8125 C 76.179688 103.175781 78.304688 105.0625 80.664062 106.71875 C 84.207031 109.078125 88.222656 110.730469 92.472656 111.203125 L 92.472656 163.15625 C 88.929688 164.101562 85.859375 166.226562 83.734375 169.296875 C 79.011719 176.378906 80.902344 185.824219 87.75 190.785156 C 90.347656 192.671875 93.417969 193.382812 96.484375 193.382812 C 101.445312 193.382812 106.402344 191.019531 109.238281 186.535156 C 113.960938 179.449219 112.070312 170.003906 105.222656 165.042969 C 103.804688 164.101562 102.152344 163.390625 100.5 162.917969 L 100.5 110.96875 C 100.972656 110.96875 101.445312 110.730469 101.917969 110.730469 C 108.53125 109.550781 114.433594 105.773438 118.683594 100.578125 L 150.5625 118.996094 C 149.617188 122.539062 149.855469 126.316406 151.507812 129.859375 C 153.394531 133.636719 156.464844 136.234375 160.246094 137.652344 C 161.898438 138.125 163.550781 138.597656 165.203125 138.597656 C 167.566406 138.597656 169.691406 138.125 171.816406 136.945312 C 175.59375 135.054688 178.191406 131.984375 179.609375 128.207031 C 181.023438 124.429688 180.789062 120.175781 178.898438 116.398438 C 177.011719 112.621094 173.941406 110.023438 170.164062 108.605469 C 166.382812 107.191406 162.132812 107.425781 158.355469 109.316406 C 156.703125 110.023438 155.285156 111.203125 154.105469 112.382812 L 122.460938 94.4375 C 124.585938 89.480469 125.058594 84.046875 123.878906 78.617188 C 123.640625 76.726562 122.933594 75.074219 122.460938 73.421875 L 170.871094 45.554688 C 173.46875 48.152344 176.773438 49.808594 180.789062 50.042969 C 181.261719 50.042969 181.496094 50.042969 181.96875 50.042969 C 190 50.042969 196.847656 43.902344 197.320312 35.636719 C 197.320312 31.625 196.136719 27.609375 193.304688 24.539062 Z M 19.265625 45.554688 C 17.378906 46.5 15.488281 46.5 13.601562 45.792969 C 11.476562 45.320312 10.058594 43.902344 9.113281 42.015625 C 8.167969 40.125 8.167969 38.234375 8.878906 36.347656 C 9.585938 34.457031 11.003906 32.804688 12.65625 32.097656 C 13.601562 31.625 14.78125 31.386719 15.960938 31.386719 C 16.90625 31.386719 17.613281 31.625 18.324219 31.859375 C 20.210938 32.570312 21.863281 33.984375 22.574219 35.636719 C 24.460938 39.179688 23.046875 43.902344 19.265625 45.554688 Z M 42.171875 119.941406 C 41.9375 122.066406 40.992188 123.71875 39.574219 125.136719 C 38.160156 126.554688 36.035156 127.027344 34.144531 127.027344 C 32.019531 126.789062 30.367188 125.84375 28.949219 124.429688 C 27.53125 123.011719 27.058594 120.886719 27.058594 118.996094 C 27.296875 114.980469 30.601562 111.914062 34.617188 111.914062 C 34.851562 111.914062 35.089844 111.914062 35.089844 111.914062 C 37.214844 112.148438 38.867188 113.09375 40.285156 114.511719 C 41.699219 116.164062 42.410156 118.050781 42.171875 119.941406 Z M 90.109375 11.550781 C 91.289062 9.898438 92.945312 8.71875 94.832031 8.480469 C 96.722656 8.011719 98.847656 8.480469 100.5 9.664062 C 104.042969 12.023438 104.75 16.746094 102.625 20.054688 C 100.265625 23.59375 95.542969 24.304688 92.234375 22.179688 C 88.695312 19.816406 87.75 15.09375 90.109375 11.550781 Z M 102.625 182.992188 C 100.265625 186.535156 95.542969 187.242188 92.234375 185.117188 C 88.695312 182.753906 87.984375 178.03125 90.109375 174.726562 C 91.289062 173.074219 92.945312 171.894531 94.832031 171.65625 C 95.304688 171.65625 95.777344 171.421875 96.25 171.421875 C 97.667969 171.421875 99.320312 171.894531 100.5 172.835938 C 104.042969 174.726562 104.988281 179.449219 102.625 182.992188 Z M 100.027344 103.882812 C 94.832031 104.828125 89.402344 103.882812 84.914062 100.8125 C 80.429688 97.742188 77.359375 93.257812 76.414062 87.824219 C 75.46875 82.628906 76.414062 77.199219 79.484375 72.710938 C 83.5 67.046875 89.875 63.738281 96.25 63.738281 C 100.265625 63.738281 104.042969 64.921875 107.585938 67.28125 C 112.070312 70.351562 115.140625 74.839844 116.085938 80.269531 C 117.03125 85.464844 116.085938 90.894531 113.015625 95.382812 C 109.945312 99.632812 105.460938 102.703125 100.027344 103.882812 Z M 161.898438 116.871094 C 162.84375 116.398438 164.023438 116.164062 165.203125 116.164062 C 166.148438 116.164062 166.855469 116.398438 167.566406 116.636719 C 169.453125 117.34375 171.105469 118.761719 171.816406 120.414062 C 172.761719 122.300781 172.761719 124.191406 172.050781 126.082031 C 171.34375 127.96875 169.925781 129.625 168.273438 130.332031 C 166.382812 131.277344 164.496094 131.277344 162.605469 130.566406 C 160.71875 129.859375 159.0625 128.441406 158.355469 126.789062 C 157.410156 124.898438 157.410156 123.011719 158.121094 121.121094 C 158.828125 119.234375 160.007812 117.816406 161.898438 116.871094 Z M 189.289062 35.167969 C 189.054688 39.417969 185.277344 42.488281 181.261719 42.25 C 177.011719 42.015625 173.941406 38.234375 174.175781 34.222656 C 174.414062 29.972656 178.191406 26.902344 182.207031 27.136719 C 184.332031 27.375 185.984375 28.316406 187.402344 29.734375 C 188.816406 31.152344 189.527344 33.039062 189.289062 35.167969 Z M 189.289062 35.167969 "/>
<path style="fill:none;stroke-width:18;stroke-linecap:round;stroke-linejoin:round;stroke:rgb(0%,0%,0%);stroke-opacity:1;stroke-miterlimit:4;" d="M 263.196185 32.980469 L 263.196185 173.480469 " transform="matrix(1,0,0,1,0.303815,0)"/>
</g>
</svg>
